<?xml version="1.0" encoding="utf-8"?>
<!DOCTYPE svg PUBLIC "-//W3C//DTD SVG 1.1//EN"
 "http://www.w3.org/Graphics/SVG/1.1/DTD/svg11.dtd">
<svg xmlns="http://www.w3.org/2000/svg" version="1.2" width="500" height="500" viewBox="0 0 500 500"><rect x="0" y="0" width="16" height="63" fill="red" stroke="black"></rect><rect x="16" y="0" width="16" height="63" fill="blue" stroke="black"></rect><rect x="32" y="0" width="32" height="16" fill="blue" stroke="black"></rect><rect x="32" y="16" width="32" height="16" fill="red" stroke="black"></rect><rect x="32" y="32" width="16" height="32" fill="red" stroke="black"></rect><rect x="48" y="32" width="16" height="32" fill="blue" stroke="black"></rect><rect x="0" y="63" width="16" height="63" fill="red" stroke="black"></rect><rect x="16" y="63" width="16" height="63" fill="blue" stroke="black"></rect><rect x="32" y="63" width="32" height="16" fill="blue" stroke="black"></rect><rect x="32" y="79" width="32" height="16" fill="red" stroke="black"></rect><rect x="32" y="95" width="16" height="32" fill="red" stroke="black"></rect><rect x="48" y="95" width="16" height="32" fill="blue" stroke="black"></rect><rect x="63" y="0" width="16" height="63" fill="red" stroke="black"></rect><rect x="79" y="0" width="16" height="63" fill="blue" stroke="black"></rect><rect x="95" y="0" width="32" height="16" fill="blue" stroke="black"></rect><rect x="95" y="16" width="32" height="16" fill="red" stroke="black"></rect><rect x="95" y="32" width="16" height="32" fill="red" stroke="black"></rect><rect x="111" y="32" width="16" height="32" fill="blue" stroke="black"></rect><rect x="63" y="63" width="16" height="63" fill="red" stroke="black"></rect><rect x="79" y="63" width="16" height="63" fill="blue" stroke="black"></rect><rect x="95" y="63" width="32" height="16" fill="blue" stroke="black"></rect><rect x="95" y="79" width="32" height="16" fill="red" stroke="black"></rect><rect x="95" y="95" width="16" height="32" fill="red" stroke="black"></rect><rect x="111" y="95" width="16" height="32" fill="blue" stroke="black"></rect><rect x="0" y="125" width="16" height="63" fill="red" stroke="black"></rect><rect x="16" y="125" width="16" height="63" fill="blue" stroke="black"></rect><rect x="32" y="125" width="32" height="16" fill="blue" stroke="black"></rect><rect x="32" y="141" width="32" height="16" fill="red" stroke="black"></rect><rect x="32" y="157" width="16" height="32" fill="red" stroke="black"></rect><rect x="48" y="157" width="16" height="32" fill="blue" stroke="black"></rect><rect x="0" y="188" width="16" height="63" fill="red" stroke="black"></rect><rect x="16" y="188" width="16" height="63" fill="blue" stroke="black"></rect><rect x="32" y="188" width="32" height="16" fill="blue" stroke="black"></rect><rect x="32" y="204" width="32" height="16" fill="red" stroke="black"></rect><rect x="32" y="220" width="16" height="32" fill="red" stroke="black"></rect><rect x="48" y="220" width="16" height="32" fill="blue" stroke="black"></rect><rect x="63" y="125" width="16" height="63" fill="red" stroke="black"></rect><rect x="79" y="125" width="16" height="63" fill="blue" stroke="black"></rect><rect x="95" y="125" width="32" height="16" fill="blue" stroke="black"></rect><rect x="95" y="141" width="32" height="16" fill="red" stroke="black"></rect><rect x="95" y="157" width="16" height="32" fill="red" stroke="black"></rect><rect x="111" y="157" width="16" height="32" fill="blue" stroke="black"></rect><rect x="63" y="188" width="16" height="63" fill="red" stroke="black"></rect><rect x="79" y="188" width="16" height="63" fill="blue" stroke="black"></rect><rect x="95" y="188" width="32" height="16" fill="blue" stroke="black"></rect><rect x="95" y="204" width="32" height="16" fill="red" stroke="black"></rect><rect x="95" y="220" width="16" height="32" fill="red" stroke="black"></rect><rect x="111" y="220" width="16" height="32" fill="blue" stroke="black"></rect><rect x="125" y="0" width="16" height="63" fill="red" stroke="black"></rect><rect x="141" y="0" width="16" height="63" fill="blue" stroke="black"></rect><rect x="157" y="0" width="32" height="16" fill="blue" stroke="black"></rect><rect x="157" y="16" width="32" height="16" fill="red" stroke="black"></rect><rect x="157" y="32" width="16" height="32" fill="red" stroke="black"></rect><rect x="173" y="32" width="16" height="32" fill="blue" stroke="black"></rect><rect x="125" y="63" width="16" height="63" fill="red" stroke="black"></rect><rect x="141" y="63" width="16" height="63" fill="blue" stroke="black"></rect><rect x="157" y="63" width="32" height="16" fill="blue" stroke="black"></rect><rect x="157" y="79" width="32" height="16" fill="red" stroke="black"></rect><rect x="157" y="95" width="16" height="32" fill="red" stroke="black"></rect><rect x="173" y="95" width="16" height="32" fill="blue" stroke="black"></rect><rect x="188" y="0" width="16" height="63" fill="red" stroke="black"></rect><rect x="204" y="0" width="16" height="63" fill="blue" stroke="black"></rect><rect x="220" y="0" width="32" height="16" fill="blue" stroke="black"></rect><rect x="220" y="16" width="32" height="16" fill="red" stroke="black"></rect><rect x="220" y="32" width="16" height="32" fill="red" stroke="black"></rect><rect x="236" y="32" width="16" height="32" fill="blue" stroke="black"></rect><rect x="188" y="63" width="16" height="63" fill="red" stroke="black"></rect><rect x="204" y="63" width="16" height="63" fill="blue" stroke="black"></rect><rect x="220" y="63" width="32" height="16" fill="blue" stroke="black"></rect><rect x="220" y="79" width="32" height="16" fill="red" stroke="black"></rect><rect x="220" y="95" width="16" height="32" fill="red" stroke="black"></rect><rect x="236" y="95" width="16" height="32" fill="blue" stroke="black"></rect><rect x="125" y="125" width="16" height="63" fill="red" stroke="black"></rect><rect x="141" y="125" width="16" height="63" fill="blue" stroke="black"></rect><rect x="157" y="125" width="32" height="16" fill="blue" stroke="black"></rect><rect x="157" y="141" width="32" height="16" fill="red" stroke="black"></rect><rect x="157" y="157" width="16" height="32" fill="red" stroke="black"></rect><rect x="173" y="157" width="16" height="32" fill="blue" stroke="black"></rect><rect x="125" y="188" width="16" height="63" fill="red" stroke="black"></rect><rect x="141" y="188" width="16" height="63" fill="blue" stroke="black"></rect><rect x="157" y="188" width="32" height="16" fill="blue" stroke="black"></rect><rect x="157" y="204" width="32" height="16" fill="red" stroke="black"></rect><rect x="157" y="220" width="16" height="32" fill="red" stroke="black"></rect><rect x="173" y="220" width="16" height="32" fill="blue" stroke="black"></rect><rect x="188" y="125" width="16" height="63" fill="red" stroke="black"></rect><rect x="204" y="125" width="16" height="63" fill="blue" stroke="black"></rect><rect x="220" y="125" width="32" height="16" fill="blue" stroke="black"></rect><rect x="220" y="141" width="32" height="16" fill="red" stroke="black"></rect><rect x="220" y="157" width="16" height="32" fill="red" stroke="black"></rect><rect x="236" y="157" width="16" height="32" fill="blue" stroke="black"></rect><rect x="188" y="188" width="16" height="63" fill="red" stroke="black"></rect><rect x="204" y="188" width="16" height="63" fill="blue" stroke="black"></rect><rect x="220" y="188" width="32" height="16" fill="blue" stroke="black"></rect><rect x="220" y="204" width="32" height="16" fill="red" stroke="black"></rect><rect x="220" y="220" width="16" height="32" fill="red" stroke="black"></rect><rect x="236" y="220" width="16" height="32" fill="blue" stroke="black"></rect><rect x="0" y="250" width="16" height="63" fill="red" stroke="black"></rect><rect x="16" y="250" width="16" height="63" fill="blue" stroke="black"></rect><rect x="32" y="250" width="32" height="16" fill="blue" stroke="black"></rect><rect x="32" y="266" width="32" height="16" fill="red" stroke="black"></rect><rect x="32" y="282" width="16" height="32" fill="red" stroke="black"></rect><rect x="48" y="282" width="16" height="32" fill="blue" stroke="black"></rect><rect x="0" y="313" width="16" height="63" fill="red" stroke="black"></rect><rect x="16" y="313" width="16" height="63" fill="blue" stroke="black"></rect><rect x="32" y="313" width="32" height="16" fill="blue" stroke="black"></rect><rect x="32" y="329" width="32" height="16" fill="red" stroke="black"></rect><rect x="32" y="345" width="16" height="32" fill="red" stroke="black"></rect><rect x="48" y="345" width="16" height="32" fill="blue" stroke="black"></rect><rect x="63" y="250" width="16" height="63" fill="red" stroke="black"></rect><rect x="79" y="250" width="16" height="63" fill="blue" stroke="black"></rect><rect x="95" y="250" width="32" height="16" fill="blue" stroke="black"></rect><rect x="95" y="266" width="32" height="16" fill="red" stroke="black"></rect><rect x="95" y="282" width="16" height="32" fill="red" stroke="black"></rect><rect x="111" y="282" width="16" height="32" fill="blue" stroke="black"></rect><rect x="63" y="313" width="16" height="63" fill="red" stroke="black"></rect><rect x="79" y="313" width="16" height="63" fill="blue" stroke="black"></rect><rect x="95" y="313" width="32" height="16" fill="blue" stroke="black"></rect><rect x="95" y="329" width="32" height="16" fill="red" stroke="black"></rect><rect x="95" y="345" width="16" height="32" fill="red" stroke="black"></rect><rect x="111" y="345" width="16" height="32" fill="blue" stroke="black"></rect><rect x="0" y="375" width="16" height="63" fill="red" stroke="black"></rect><rect x="16" y="375" width="16" height="63" fill="blue" stroke="black"></rect><rect x="32" y="375" width="32" height="16" fill="blue" stroke="black"></rect><rect x="32" y="391" width="32" height="16" fill="red" stroke="black"></rect><rect x="32" y="407" width="16" height="32" fill="red" stroke="black"></rect><rect x="48" y="407" width="16" height="32" fill="blue" stroke="black"></rect><rect x="0" y="438" width="16" height="63" fill="red" stroke="black"></rect><rect x="16" y="438" width="16" height="63" fill="blue" stroke="black"></rect><rect x="32" y="438" width="32" height="16" fill="blue" stroke="black"></rect><rect x="32" y="454" width="32" height="16" fill="red" stroke="black"></rect><rect x="32" y="470" width="16" height="32" fill="red" stroke="black"></rect><rect x="48" y="470" width="16" height="32" fill="blue" stroke="black"></rect><rect x="63" y="375" width="16" height="63" fill="red" stroke="black"></rect><rect x="79" y="375" width="16" height="63" fill="blue" stroke="black"></rect><rect x="95" y="375" width="32" height="16" fill="blue" stroke="black"></rect><rect x="95" y="391" width="32" height="16" fill="red" stroke="black"></rect><rect x="95" y="407" width="16" height="32" fill="red" stroke="black"></rect><rect x="111" y="407" width="16" height="32" fill="blue" stroke="black"></rect><rect x="63" y="438" width="16" height="63" fill="red" stroke="black"></rect><rect x="79" y="438" width="16" height="63" fill="blue" stroke="black"></rect><rect x="95" y="438" width="32" height="16" fill="blue" stroke="black"></rect><rect x="95" y="454" width="32" height="16" fill="red" stroke="black"></rect><rect x="95" y="470" width="16" height="32" fill="red" stroke="black"></rect><rect x="111" y="470" width="16" height="32" fill="blue" stroke="black"></rect><rect x="125" y="250" width="16" height="63" fill="red" stroke="black"></rect><rect x="141" y="250" width="16" height="63" fill="blue" stroke="black"></rect><rect x="157" y="250" width="32" height="16" fill="blue" stroke="black"></rect><rect x="157" y="266" width="32" height="16" fill="red" stroke="black"></rect><rect x="157" y="282" width="16" height="32" fill="red" stroke="black"></rect><rect x="173" y="282" width="16" height="32" fill="blue" stroke="black"></rect><rect x="125" y="313" width="16" height="63" fill="red" stroke="black"></rect><rect x="141" y="313" width="16" height="63" fill="blue" stroke="black"></rect><rect x="157" y="313" width="32" height="16" fill="blue" stroke="black"></rect><rect x="157" y="329" width="32" height="16" fill="red" stroke="black"></rect><rect x="157" y="345" width="16" height="32" fill="red" stroke="black"></rect><rect x="173" y="345" width="16" height="32" fill="blue" stroke="black"></rect><rect x="188" y="250" width="16" height="63" fill="red" stroke="black"></rect><rect x="204" y="250" width="16" height="63" fill="blue" stroke="black"></rect><rect x="220" y="250" width="32" height="16" fill="blue" stroke="black"></rect><rect x="220" y="266" width="32" height="16" fill="red" stroke="black"></rect><rect x="220" y="282" width="16" height="32" fill="red" stroke="black"></rect><rect x="236" y="282" width="16" height="32" fill="blue" stroke="black"></rect><rect x="188" y="313" width="16" height="63" fill="red" stroke="black"></rect><rect x="204" y="313" width="16" height="63" fill="blue" stroke="black"></rect><rect x="220" y="313" width="32" height="16" fill="blue" stroke="black"></rect><rect x="220" y="329" width="32" height="16" fill="red" stroke="black"></rect><rect x="220" y="345" width="16" height="32" fill="red" stroke="black"></rect><rect x="236" y="345" width="16" height="32" fill="blue" stroke="black"></rect><rect x="125" y="375" width="16" height="63" fill="red" stroke="black"></rect><rect x="141" y="375" width="16" height="63" fill="blue" stroke="black"></rect><rect x="157" y="375" width="32" height="16" fill="blue" stroke="black"></rect><rect x="157" y="391" width="32" height="16" fill="red" stroke="black"></rect><rect x="157" y="407" width="16" height="32" fill="red" stroke="black"></rect><rect x="173" y="407" width="16" height="32" fill="blue" stroke="black"></rect><rect x="125" y="438" width="16" height="63" fill="red" stroke="black"></rect><rect x="141" y="438" width="16" height="63" fill="blue" stroke="black"></rect><rect x="157" y="438" width="32" height="16" fill="blue" stroke="black"></rect><rect x="157" y="454" width="32" height="16" fill="red" stroke="black"></rect><rect x="157" y="470" width="16" height="32" fill="red" stroke="black"></rect><rect x="173" y="470" width="16" height="32" fill="blue" stroke="black"></rect><rect x="188" y="375" width="16" height="63" fill="red" stroke="black"></rect><rect x="204" y="375" width="16" height="63" fill="blue" stroke="black"></rect><rect x="220" y="375" width="32" height="16" fill="blue" stroke="black"></rect><rect x="220" y="391" width="32" height="16" fill="red" stroke="black"></rect><rect x="220" y="407" width="16" height="32" fill="red" stroke="black"></rect><rect x="236" y="407" width="16" height="32" fill="blue" stroke="black"></rect><rect x="188" y="438" width="16" height="63" fill="red" stroke="black"></rect><rect x="204" y="438" width="16" height="63" fill="blue" stroke="black"></rect><rect x="220" y="438" width="32" height="16" fill="blue" stroke="black"></rect><rect x="220" y="454" width="32" height="16" fill="red" stroke="black"></rect><rect x="220" y="470" width="16" height="32" fill="red" stroke="black"></rect><rect x="236" y="470" width="16" height="32" fill="blue" stroke="black"></rect><rect x="250" y="0" width="16" height="63" fill="red" stroke="black"></rect><rect x="266" y="0" width="16" height="63" fill="blue" stroke="black"></rect><rect x="282" y="0" width="32" height="16" fill="blue" stroke="black"></rect><rect x="282" y="16" width="32" height="16" fill="red" stroke="black"></rect><rect x="282" y="32" width="16" height="32" fill="red" stroke="black"></rect><rect x="298" y="32" width="16" height="32" fill="blue" stroke="black"></rect><rect x="250" y="63" width="16" height="63" fill="red" stroke="black"></rect><rect x="266" y="63" width="16" height="63" fill="blue" stroke="black"></rect><rect x="282" y="63" width="32" height="16" fill="blue" stroke="black"></rect><rect x="282" y="79" width="32" height="16" fill="red" stroke="black"></rect><rect x="282" y="95" width="16" height="32" fill="red" stroke="black"></rect><rect x="298" y="95" width="16" height="32" fill="blue" stroke="black"></rect><rect x="313" y="0" width="16" height="63" fill="red" stroke="black"></rect><rect x="329" y="0" width="16" height="63" fill="blue" stroke="black"></rect><rect x="345" y="0" width="32" height="16" fill="blue" stroke="black"></rect><rect x="345" y="16" width="32" height="16" fill="red" stroke="black"></rect><rect x="345" y="32" width="16" height="32" fill="red" stroke="black"></rect><rect x="361" y="32" width="16" height="32" fill="blue" stroke="black"></rect><rect x="313" y="63" width="16" height="63" fill="red" stroke="black"></rect><rect x="329" y="63" width="16" height="63" fill="blue" stroke="black"></rect><rect x="345" y="63" width="32" height="16" fill="blue" stroke="black"></rect><rect x="345" y="79" width="32" height="16" fill="red" stroke="black"></rect><rect x="345" y="95" width="16" height="32" fill="red" stroke="black"></rect><rect x="361" y="95" width="16" height="32" fill="blue" stroke="black"></rect><rect x="250" y="125" width="16" height="63" fill="red" stroke="black"></rect><rect x="266" y="125" width="16" height="63" fill="blue" stroke="black"></rect><rect x="282" y="125" width="32" height="16" fill="blue" stroke="black"></rect><rect x="282" y="141" width="32" height="16" fill="red" stroke="black"></rect><rect x="282" y="157" width="16" height="32" fill="red" stroke="black"></rect><rect x="298" y="157" width="16" height="32" fill="blue" stroke="black"></rect><rect x="250" y="188" width="16" height="63" fill="red" stroke="black"></rect><rect x="266" y="188" width="16" height="63" fill="blue" stroke="black"></rect><rect x="282" y="188" width="32" height="16" fill="blue" stroke="black"></rect><rect x="282" y="204" width="32" height="16" fill="red" stroke="black"></rect><rect x="282" y="220" width="16" height="32" fill="red" stroke="black"></rect><rect x="298" y="220" width="16" height="32" fill="blue" stroke="black"></rect><rect x="313" y="125" width="16" height="63" fill="red" stroke="black"></rect><rect x="329" y="125" width="16" height="63" fill="blue" stroke="black"></rect><rect x="345" y="125" width="32" height="16" fill="blue" stroke="black"></rect><rect x="345" y="141" width="32" height="16" fill="red" stroke="black"></rect><rect x="345" y="157" width="16" height="32" fill="red" stroke="black"></rect><rect x="361" y="157" width="16" height="32" fill="blue" stroke="black"></rect><rect x="313" y="188" width="16" height="63" fill="red" stroke="black"></rect><rect x="329" y="188" width="16" height="63" fill="blue" stroke="black"></rect><rect x="345" y="188" width="32" height="16" fill="blue" stroke="black"></rect><rect x="345" y="204" width="32" height="16" fill="red" stroke="black"></rect><rect x="345" y="220" width="16" height="32" fill="red" stroke="black"></rect><rect x="361" y="220" width="16" height="32" fill="blue" stroke="black"></rect><rect x="375" y="0" width="16" height="63" fill="red" stroke="black"></rect><rect x="391" y="0" width="16" height="63" fill="blue" stroke="black"></rect><rect x="407" y="0" width="32" height="16" fill="blue" stroke="black"></rect><rect x="407" y="16" width="32" height="16" fill="red" stroke="black"></rect><rect x="407" y="32" width="16" height="32" fill="red" stroke="black"></rect><rect x="423" y="32" width="16" height="32" fill="blue" stroke="black"></rect><rect x="375" y="63" width="16" height="63" fill="red" stroke="black"></rect><rect x="391" y="63" width="16" height="63" fill="blue" stroke="black"></rect><rect x="407" y="63" width="32" height="16" fill="blue" stroke="black"></rect><rect x="407" y="79" width="32" height="16" fill="red" stroke="black"></rect><rect x="407" y="95" width="16" height="32" fill="red" stroke="black"></rect><rect x="423" y="95" width="16" height="32" fill="blue" stroke="black"></rect><rect x="438" y="0" width="16" height="63" fill="red" stroke="black"></rect><rect x="454" y="0" width="16" height="63" fill="blue" stroke="black"></rect><rect x="470" y="0" width="32" height="16" fill="blue" stroke="black"></rect><rect x="470" y="16" width="32" height="16" fill="red" stroke="black"></rect><rect x="470" y="32" width="16" height="32" fill="red" stroke="black"></rect><rect x="486" y="32" width="16" height="32" fill="blue" stroke="black"></rect><rect x="438" y="63" width="16" height="63" fill="red" stroke="black"></rect><rect x="454" y="63" width="16" height="63" fill="blue" stroke="black"></rect><rect x="470" y="63" width="32" height="16" fill="blue" stroke="black"></rect><rect x="470" y="79" width="32" height="16" fill="red" stroke="black"></rect><rect x="470" y="95" width="16" height="32" fill="red" stroke="black"></rect><rect x="486" y="95" width="16" height="32" fill="blue" stroke="black"></rect><rect x="375" y="125" width="16" height="63" fill="red" stroke="black"></rect><rect x="391" y="125" width="16" height="63" fill="blue" stroke="black"></rect><rect x="407" y="125" width="32" height="16" fill="blue" stroke="black"></rect><rect x="407" y="141" width="32" height="16" fill="red" stroke="black"></rect><rect x="407" y="157" width="16" height="32" fill="red" stroke="black"></rect><rect x="423" y="157" width="16" height="32" fill="blue" stroke="black"></rect><rect x="375" y="188" width="16" height="63" fill="red" stroke="black"></rect><rect x="391" y="188" width="16" height="63" fill="blue" stroke="black"></rect><rect x="407" y="188" width="32" height="16" fill="blue" stroke="black"></rect><rect x="407" y="204" width="32" height="16" fill="red" stroke="black"></rect><rect x="407" y="220" width="16" height="32" fill="red" stroke="black"></rect><rect x="423" y="220" width="16" height="32" fill="blue" stroke="black"></rect><rect x="438" y="125" width="16" height="63" fill="red" stroke="black"></rect><rect x="454" y="125" width="16" height="63" fill="blue" stroke="black"></rect><rect x="470" y="125" width="32" height="16" fill="blue" stroke="black"></rect><rect x="470" y="141" width="32" height="16" fill="red" stroke="black"></rect><rect x="470" y="157" width="16" height="32" fill="red" stroke="black"></rect><rect x="486" y="157" width="16" height="32" fill="blue" stroke="black"></rect><rect x="438" y="188" width="16" height="63" fill="red" stroke="black"></rect><rect x="454" y="188" width="16" height="63" fill="blue" stroke="black"></rect><rect x="470" y="188" width="32" height="16" fill="blue" stroke="black"></rect><rect x="470" y="204" width="32" height="16" fill="red" stroke="black"></rect><rect x="470" y="220" width="16" height="32" fill="red" stroke="black"></rect><rect x="486" y="220" width="16" height="32" fill="blue" stroke="black"></rect><rect x="250" y="250" width="16" height="63" fill="red" stroke="black"></rect><rect x="266" y="250" width="16" height="63" fill="blue" stroke="black"></rect><rect x="282" y="250" width="32" height="16" fill="blue" stroke="black"></rect><rect x="282" y="266" width="32" height="16" fill="red" stroke="black"></rect><rect x="282" y="282" width="16" height="32" fill="red" stroke="black"></rect><rect x="298" y="282" width="16" height="32" fill="blue" stroke="black"></rect><rect x="250" y="313" width="16" height="63" fill="red" stroke="black"></rect><rect x="266" y="313" width="16" height="63" fill="blue" stroke="black"></rect><rect x="282" y="313" width="32" height="16" fill="blue" stroke="black"></rect><rect x="282" y="329" width="32" height="16" fill="red" stroke="black"></rect><rect x="282" y="345" width="16" height="32" fill="red" stroke="black"></rect><rect x="298" y="345" width="16" height="32" fill="blue" stroke="black"></rect><rect x="313" y="250" width="16" height="63" fill="red" stroke="black"></rect><rect x="329" y="250" width="16" height="63" fill="blue" stroke="black"></rect><rect x="345" y="250" width="32" height="16" fill="blue" stroke="black"></rect><rect x="345" y="266" width="32" height="16" fill="red" stroke="black"></rect><rect x="345" y="282" width="16" height="32" fill="red" stroke="black"></rect><rect x="361" y="282" width="16" height="32" fill="blue" stroke="black"></rect><rect x="313" y="313" width="16" height="63" fill="red" stroke="black"></rect><rect x="329" y="313" width="16" height="63" fill="blue" stroke="black"></rect><rect x="345" y="313" width="32" height="16" fill="blue" stroke="black"></rect><rect x="345" y="329" width="32" height="16" fill="red" stroke="black"></rect><rect x="345" y="345" width="16" height="32" fill="red" stroke="black"></rect><rect x="361" y="345" width="16" height="32" fill="blue" stroke="black"></rect><rect x="250" y="375" width="16" height="63" fill="red" stroke="black"></rect><rect x="266" y="375" width="16" height="63" fill="blue" stroke="black"></rect><rect x="282" y="375" width="32" height="16" fill="blue" stroke="black"></rect><rect x="282" y="391" width="32" height="16" fill="red" stroke="black"></rect><rect x="282" y="407" width="16" height="32" fill="red" stroke="black"></rect><rect x="298" y="407" width="16" height="32" fill="blue" stroke="black"></rect><rect x="250" y="438" width="16" height="63" fill="red" stroke="black"></rect><rect x="266" y="438" width="16" height="63" fill="blue" stroke="black"></rect><rect x="282" y="438" width="32" height="16" fill="blue" stroke="black"></rect><rect x="282" y="454" width="32" height="16" fill="red" stroke="black"></rect><rect x="282" y="470" width="16" height="32" fill="red" stroke="black"></rect><rect x="298" y="470" width="16" height="32" fill="blue" stroke="black"></rect><rect x="313" y="375" width="16" height="63" fill="red" stroke="black"></rect><rect x="329" y="375" width="16" height="63" fill="blue" stroke="black"></rect><rect x="345" y="375" width="32" height="16" fill="blue" stroke="black"></rect><rect x="345" y="391" width="32" height="16" fill="red" stroke="black"></rect><rect x="345" y="407" width="16" height="32" fill="red" stroke="black"></rect><rect x="361" y="407" width="16" height="32" fill="blue" stroke="black"></rect><rect x="313" y="438" width="16" height="63" fill="red" stroke="black"></rect><rect x="329" y="438" width="16" height="63" fill="blue" stroke="black"></rect><rect x="345" y="438" width="32" height="16" fill="blue" stroke="black"></rect><rect x="345" y="454" width="32" height="16" fill="red" stroke="black"></rect><rect x="345" y="470" width="16" height="32" fill="red" stroke="black"></rect><rect x="361" y="470" width="16" height="32" fill="blue" stroke="black"></rect><rect x="375" y="250" width="16" height="63" fill="red" stroke="black"></rect><rect x="391" y="250" width="16" height="63" fill="blue" stroke="black"></rect><rect x="407" y="250" width="32" height="16" fill="blue" stroke="black"></rect><rect x="407" y="266" width="32" height="16" fill="red" stroke="black"></rect><rect x="407" y="282" width="16" height="32" fill="red" stroke="black"></rect><rect x="423" y="282" width="16" height="32" fill="blue" stroke="black"></rect><rect x="375" y="313" width="16" height="63" fill="red" stroke="black"></rect><rect x="391" y="313" width="16" height="63" fill="blue" stroke="black"></rect><rect x="407" y="313" width="32" height="16" fill="blue" stroke="black"></rect><rect x="407" y="329" width="32" height="16" fill="red" stroke="black"></rect><rect x="407" y="345" width="16" height="32" fill="red" stroke="black"></rect><rect x="423" y="345" width="16" height="32" fill="blue" stroke="black"></rect><rect x="438" y="250" width="16" height="63" fill="red" stroke="black"></rect><rect x="454" y="250" width="16" height="63" fill="blue" stroke="black"></rect><rect x="470" y="250" width="32" height="16" fill="blue" stroke="black"></rect><rect x="470" y="266" width="32" height="16" fill="red" stroke="black"></rect><rect x="470" y="282" width="16" height="32" fill="red" stroke="black"></rect><rect x="486" y="282" width="16" height="32" fill="blue" stroke="black"></rect><rect x="438" y="313" width="16" height="63" fill="red" stroke="black"></rect><rect x="454" y="313" width="16" height="63" fill="blue" stroke="black"></rect><rect x="470" y="313" width="32" height="16" fill="blue" stroke="black"></rect><rect x="470" y="329" width="32" height="16" fill="red" stroke="black"></rect><rect x="470" y="345" width="16" height="32" fill="red" stroke="black"></rect><rect x="486" y="345" width="16" height="32" fill="blue" stroke="black"></rect><rect x="375" y="375" width="16" height="63" fill="red" stroke="black"></rect><rect x="391" y="375" width="16" height="63" fill="blue" stroke="black"></rect><rect x="407" y="375" width="32" height="16" fill="blue" stroke="black"></rect><rect x="407" y="391" width="32" height="16" fill="red" stroke="black"></rect><rect x="407" y="407" width="16" height="32" fill="red" stroke="black"></rect><rect x="423" y="407" width="16" height="32" fill="blue" stroke="black"></rect><rect x="375" y="438" width="16" height="63" fill="red" stroke="black"></rect><rect x="391" y="438" width="16" height="63" fill="blue" stroke="black"></rect><rect x="407" y="438" width="32" height="16" fill="blue" stroke="black"></rect><rect x="407" y="454" width="32" height="16" fill="red" stroke="black"></rect><rect x="407" y="470" width="16" height="32" fill="red" stroke="black"></rect><rect x="423" y="470" width="16" height="32" fill="blue" stroke="black"></rect><rect x="438" y="375" width="16" height="63" fill="red" stroke="black"></rect><rect x="454" y="375" width="16" height="63" fill="blue" stroke="black"></rect><rect x="470" y="375" width="32" height="16" fill="blue" stroke="black"></rect><rect x="470" y="391" width="32" height="16" fill="red" stroke="black"></rect><rect x="470" y="407" width="16" height="32" fill="red" stroke="black"></rect><rect x="486" y="407" width="16" height="32" fill="blue" stroke="black"></rect><rect x="438" y="438" width="16" height="63" fill="red" stroke="black"></rect><rect x="454" y="438" width="16" height="63" fill="blue" stroke="black"></rect><rect x="470" y="438" width="32" height="16" fill="blue" stroke="black"></rect><rect x="470" y="454" width="32" height="16" fill="red" stroke="black"></rect><rect x="470" y="470" width="16" height="32" fill="red" stroke="black"></rect><rect x="486" y="470" width="16" height="32" fill="blue" stroke="black"></rect></svg>
